<?xml version="1.0" encoding="utf-8"?>
<!-- Generator: Adobe Illustrator 24.1.1, SVG Export Plug-In . SVG Version: 6.00 Build 0)  -->
<svg version="1.1" id="Camada_1" xmlns="http://www.w3.org/2000/svg" xmlns:xlink="http://www.w3.org/1999/xlink" x="0px" y="0px"
	 viewBox="0 0 100 100" style="enable-background:new 0 0 100 100;" xml:space="preserve">
<style type="text/css">
	.st0{fill:#FFFFFF;}
</style>
<g id="Layer_2_1_">
	<g id="Outlined_Mnemonics_Logos">
		<g id="Ai">
			<path class="st0" d="M48.5,59.7H33l-3.2,9.8c-0.1,0.4-0.4,0.6-0.8,0.6h-7.8c-0.5,0-0.6-0.3-0.5-0.8l13.4-38.6
				c0.1-0.4,0.3-0.9,0.4-1.4c0.2-0.9,0.3-1.8,0.3-2.7c0-0.2,0.1-0.4,0.3-0.5c0,0,0.1,0,0.1,0h10.7c0.3,0,0.5,0.1,0.5,0.3l15.2,42.9
				c0.1,0.5,0,0.7-0.4,0.7h-8.7c-0.3,0-0.6-0.2-0.7-0.5L48.5,59.7z M35.4,51.3H46c-0.3-0.9-0.6-1.9-1-3c-0.4-1.1-0.8-2.3-1.1-3.6
				c-0.4-1.3-0.8-2.5-1.2-3.8c-0.4-1.3-0.8-2.5-1.1-3.7c-0.3-1.2-0.6-2.3-0.9-3.3h-0.1c-0.4,1.8-0.8,3.6-1.4,5.4
				c-0.6,2-1.3,4.1-1.9,6.2C36.6,47.6,36,49.5,35.4,51.3L35.4,51.3z"/>
			<path class="st0" d="M70.8,33.3c-1.4,0-2.7-0.5-3.7-1.5c-1-1-1.5-2.4-1.4-3.8c0-1.4,0.5-2.8,1.5-3.7s2.3-1.5,3.7-1.5
				c1.6,0,2.9,0.5,3.8,1.5c0.9,1,1.4,2.3,1.4,3.7c0,1.4-0.5,2.8-1.5,3.8C73.6,32.9,72.2,33.4,70.8,33.3z M66.1,69.5V37.4
				c0-0.4,0.2-0.6,0.5-0.6h8.3c0.4,0,0.5,0.2,0.5,0.6v32.1c0,0.5-0.2,0.7-0.5,0.7h-8.2C66.3,70.2,66.1,69.9,66.1,69.5z"/>
		</g>
	</g>
</g>
<path class="st0" d="M100,18.7c0-9.5-8-17.3-17.5-17.3c-21.6,0-43.1,0-64.7,0c-0.7,0-1.4,0-2,0.1C6.2,2.8,0,10,0,19.6
	c0,20.2,0,40.4,0,60.7c0,1.4,0.1,2.7,0.3,4.1C2.1,93,9.2,98.8,18,98.8c10.7,0,21.4,0,32.1,0c10.6,0,21.2,0,31.8,0c0.2,0,0.3,0,0.5,0
	c9.6-0.1,17.6-7.8,17.6-17.4C100,60.5,100,39.6,100,18.7z M95.8,79.4c0,8.8-6.4,15.2-15.2,15.2c-10.2,0-20.4,0-30.7,0c0,0,0,0,0,0
	c-10.1,0-20.2,0-30.3,0c-8.9,0-15.3-6.1-15.4-15c-0.1-13.8,0-27.7,0-41.5c0-5.7,0.1-11.4,0-17.1C4,12,11.2,5.4,20,5.4
	c20.3,0.2,40.6,0,60.9,0.1c7.2,0,13.2,4.9,14.6,12c0.2,0.9,0.3,1.8,0.3,2.7C95.8,39.9,95.8,59.6,95.8,79.4z"/>
</svg>
