<?xml version="1.0" encoding="utf-8"?>
<!-- Generator: Adobe Illustrator 24.1.1, SVG Export Plug-In . SVG Version: 6.00 Build 0)  -->
<svg version="1.1" id="Camada_1" xmlns="http://www.w3.org/2000/svg" xmlns:xlink="http://www.w3.org/1999/xlink" x="0px" y="0px"
	 viewBox="0 0 100 100" style="enable-background:new 0 0 100 100;" xml:space="preserve">
<style type="text/css">
	.st0{fill:#FFFFFF;}
</style>
<path class="st0" d="M100,18.7c0-9.5-8-17.3-17.5-17.3c-21.6,0-43.1,0-64.7,0c-0.7,0-1.4,0-2,0.1C6.2,2.8,0,10,0,19.6
	c0,20.2,0,40.4,0,60.7c0,1.4,0.1,2.7,0.3,4.1C2.1,93,9.2,98.8,18,98.8c10.7,0,21.4,0,32.1,0c10.6,0,21.2,0,31.8,0c0.2,0,0.3,0,0.5,0
	c9.6-0.1,17.6-7.8,17.6-17.4C100,60.5,100,39.6,100,18.7z M95.8,79.4c0,8.8-6.4,15.2-15.2,15.2c-10.2,0-20.4,0-30.7,0c0,0,0,0,0,0
	c-10.1,0-20.2,0-30.3,0c-8.9,0-15.3-6.1-15.4-15c-0.1-13.8,0-27.7,0-41.5c0-5.7,0.1-11.4,0-17.1C4,12,11.2,5.4,20,5.4
	c20.3,0.2,40.6,0,60.9,0.1c7.2,0,13.2,4.9,14.6,12c0.2,0.9,0.3,1.8,0.3,2.7C95.8,39.9,95.8,59.6,95.8,79.4z"/>
<path class="st0" d="M55.9,64.5c0-0.6,0-1.3,0-1.9c0-0.7-0.1-1.9,1-1.3c2.5,1.5,5.2,2.2,8.2,2.2c0.7,0,1.4-0.1,2-0.3
	c2.6-0.8,3.2-3.3,1.3-5.2c-1.3-1.3-3.1-2.2-4.7-3c-1.2-0.6-2.3-1.3-3.4-2c-3.3-2.3-4.8-5.5-4.2-9.5c0.6-4.2,3.2-6.8,7.2-7.9
	c3.7-1,7.3-0.7,11,0.3c1.2,0.3,1.1,1.3,1.1,2.3c0,1.4,0,2.8,0,4.2c0,0.2,0,0.3-0.1,0.5c-0.2,0.4-0.8,0.1-1.1,0
	c-2.1-1.1-4.4-1.5-6.8-1.5c-0.4,0-0.9,0-1.3,0.1c-1.4,0.2-2.7,0.8-3,2.4c-0.3,1.5,0.5,2.5,1.7,3.3c1.7,1.2,3.6,2,5.3,3
	c1.9,1.1,3.8,2.3,5.1,4.2c3.6,5.3,1.1,12.8-5.1,14.9c-4.3,1.4-8.6,1-12.8-0.5c-1.2-0.4-1.4-1.4-1.4-2.6C55.9,65.6,55.9,65,55.9,64.5
	z"/>
<path class="st0" d="M39,23.6c-4.4-0.4-8.8-0.1-13.2,0c-1.2,0-1.6,0.4-1.6,1.6c0.1,7.1,0,14.3,0,21.4c0,7.2,0,14.4,0,21.5
	c0,1.1,0.5,1.2,1.4,1.2c1.3,0,2.7,0,4,0c1.2,0,2.1,0.2,2.1-1.3c-0.1-4.7,0-9.4,0-14.1c0-0.8,0.2-1.1,1.1-1.1c1.4,0.1,2.9,0.1,4.4,0
	c7.6-0.5,14.4-4.6,14.9-14.1C52.4,30.3,47.4,24.4,39,23.6z M36.2,46.2c-1.2,0.1-2.5,0-3.7,0c-0.7,0-0.9-0.2-0.9-1c0-2.4,0-4.8,0-7.2
	c0-2.3,0-4.7,0-7c0-0.5,0-0.9,0.7-1c2.3-0.1,4.6-0.3,6.9,0.4c2.7,0.8,4.4,2.5,5,5.2C45.5,41.7,42.3,46,36.2,46.2z"/>
</svg>
