<?xml version="1.0" encoding="UTF-8"?>
<svg xmlns="http://www.w3.org/2000/svg" xmlns:xlink="http://www.w3.org/1999/xlink" width="512" height="512" viewBox="0 0 56 56" version="1.1"><!-- Generator: Sketch 51.3 (57544) - http://www.bohemiancoding.com/sketch --><title>034 - Empathy</title><desc>Created with Sketch.</desc><defs/><g id="Page-1" stroke="none" stroke-width="1" fill="none" fill-rule="evenodd"><g id="034---Empathy" fill="#000000" fill-rule="nonzero"><path d="M34.443,20.782 L33.062,22.175 C33.016,22.222 32.962,22.256 32.912,22.299 L42.312,31.783 C42.7285246,32.1915963 43.3954754,32.1915963 43.812,31.783 C44.231911,31.3551503 44.231911,30.6698497 43.812,30.242 L43.803,30.229 L34.443,20.782 Z" id="Shape"/><path d="M0.6,33.735 C0.861016404,33.9170713 1.13661917,34.0772821 1.424,34.214 C2.277,34.65 3.446,35.248 3.686,36.468 C3.82918406,37.2237094 3.73595159,38.0051861 3.419,38.706 C3.245,39.076 3.065,39.396 2.908,39.672 C2.859,39.758 2.808,39.854 2.757,39.941 C3.172,40.275 3.738,40.699 3.978,40.875 C4.19568419,41.0363089 4.33859797,41.2790429 4.37403559,41.5476525 C4.40947321,41.8162621 4.33440129,42.087755 4.166,42.3 C4.01761396,42.493007 3.88833948,42.6999801 3.78,42.918 C3.849,42.958 3.918,42.998 3.988,43.037 C4.87254397,43.4174365 5.54781232,44.1638818 5.838,45.082 C5.98493135,45.7872637 5.95538984,46.5179007 5.752,47.209 C5.706,47.418 5.659,47.627 5.632,47.836 C5.57367075,48.4411271 5.65403967,49.0515889 5.867,49.621 C6.08924005,50.5418186 6.99404705,51.1269975 7.925,50.952 C10.8392719,50.2514045 13.7107073,49.3832961 16.525,48.352 L16.531,48.352 C17.575,47.998 18.52,47.667 19.264,47.407 C19.955,47.166 20.476,46.984 20.747,46.897 C24.905,45.582 25.747,44.081 25.724,43.052 C25.7117067,42.5004262 26.1484449,42.0431041 26.7,42.03 C26.966356,42.0191472 27.2256982,42.1169373 27.4185752,42.3009529 C27.6114522,42.4849685 27.7213227,42.7394283 27.723,43.006 C27.781,45.498 25.639,47.449 21.354,48.806 C21.096,48.889 20.592,49.065 19.923,49.298 L19.023,49.614 C20.6713886,51.4428529 21.8738065,53.6286317 22.536,56 L45.218,55.937 L45.151,55.837 C44.8629147,55.4221101 44.6039597,54.987734 44.376,54.537 C43.8786739,53.5263955 43.4636619,52.4773282 43.135,51.4 C42.5282684,49.3530291 42.1072324,47.2555471 41.877,45.133 C41.4831884,41.7875341 41.9892651,38.3975796 43.343,35.313 C43.5516394,34.8392617 43.7853021,34.3769434 44.043,33.928 C43.7681106,34.0235418 43.480749,34.0784538 43.19,34.091 C43.1639179,34.862129 42.8495455,35.5954269 42.309,36.146 C41.766661,36.692648 41.0365378,37.0123004 40.267,37.04 C40.2414775,37.8110567 39.9274265,38.5444374 39.387,39.095 C38.8133743,39.6759782 38.0309448,40.0029935 37.2145,40.0029935 C36.3980552,40.0029935 35.6156257,39.6759782 35.042,39.095 L19.214,23.115 L19.208,23.109 L18.972,22.871 C18.964,22.863 18.962,22.853 18.955,22.845 C14.8946522,18.4774965 15.0107845,11.6822098 19.218,7.456 C21.2706382,5.37741894 24.0702293,4.20747854 26.9915,4.20747854 C29.9127707,4.20747854 32.7123618,5.37741894 34.765,7.456 C35.0234059,7.70842448 35.125587,8.08059052 35.0323024,8.42957434 C34.9390178,8.77855815 34.6647704,9.05010358 34.3148801,9.13992838 C33.9649898,9.22975319 33.5938537,9.12389241 33.344,8.863 C31.6669741,7.16365877 29.3790042,6.20708038 26.9915,6.20708038 C24.6039958,6.20708038 22.3160259,7.16365877 20.639,8.863 C17.1860294,12.3283352 17.0906209,17.9035472 20.423,21.485 C20.492,21.56 20.563,21.634 20.635,21.707 L36.465,37.683 C36.8823903,38.0894719 37.5476097,38.0894719 37.965,37.683 C38.3855658,37.255029 38.3855658,36.568971 37.965,36.141 L25.791,23.853 C25.4021915,23.4606017 25.4051017,22.8273085 25.7975,22.4385 C26.1898983,22.0496915 26.8231915,22.0526017 27.212,22.445 L39.389,34.735 C39.5867647,34.9360616 39.8569776,35.0492982 40.139,35.0492982 C40.4210224,35.0492982 40.6912353,34.9360616 40.889,34.735 C41.308911,34.3071503 41.308911,33.6218497 40.889,33.194 L30.871,23.08 C30.0627426,23.0784897 29.2884971,22.7545376 28.72,22.18 C27.5266467,20.9724157 27.5266467,19.0295843 28.72,17.822 L39.175,7.274 C39.182,7.267 39.184,7.257 39.191,7.25 C39.281,7.15933333 39.372,7.07033333 39.464,6.983 C40.450044,6.052932 41.599298,5.31286661 42.854,4.8 C38,1.262 33.41,-0.229 28.12,0.028 C24.9646074,0.249886855 21.8296146,0.701753619 18.74,1.38 C14.704,2.18 11.689,3.615 9.776,5.637 C8.19716519,7.32960767 6.97673014,9.32386929 6.188,11.5 C5.85614522,12.4674021 5.58396707,13.4542566 5.373,14.455 L5.273,14.881 C5.03242184,15.790144 4.70456527,16.6739167 4.294,17.52 C4.106,17.94 3.917,18.36 3.754,18.788 C3.65950369,19.0048357 3.60691104,19.2376006 3.599,19.474 C3.643,19.798 4.025,20.148 4.429,20.519 C5.25493667,21.1015488 5.78786015,22.0134644 5.89,23.019 C5.86993297,23.4934145 5.73617951,23.9560643 5.5,24.368 C4.24784001,27.0034832 2.71353526,29.4953873 0.924,31.8 C0.162,32.731 0,33.1 0,33.249 C0.184875894,33.4288287 0.385700599,33.5914967 0.6,33.735 Z M7.22,15.34 L7.32,14.907 C7.51314883,13.9905545 7.76024556,13.086314 8.06,12.199 C8.75567219,10.274706 9.83288063,8.51076444 11.227,7.013 C12.7595511,5.5356103 14.6468677,4.47795529 16.707,3.942 C17.2352604,3.78073285 17.7942329,4.07823964 17.9555,4.6065 C18.1167671,5.13476036 17.8192604,5.69373285 17.291,5.855 C15.56399,6.29262258 13.9772482,7.16378169 12.681,8.386 C11.4731212,9.6862822 10.5398535,11.2167868 9.937,12.886 C9.66663271,13.6961058 9.44326107,14.5211451 9.268,15.357 L9.168,15.79 C9.09556221,16.1462816 8.83546182,16.4351776 8.48871332,16.5444903 C8.14196483,16.653803 7.76320675,16.5663076 7.49953637,16.3159843 C7.235866,16.0656611 7.12883089,15.6919545 7.22,15.34 Z M7,18 C7.55228475,18 8,18.4477153 8,19 C8,19.5522847 7.55228475,20 7,20 C6.44771525,20 6,19.5522847 6,19 C6,18.4477153 6.44771525,18 7,18 Z" id="Shape"/><path d="M53.317,8.657 C51.1989673,6.49733434 48.1276774,5.56362604 45.166,6.179 L45.149,6.179 C43.5318828,6.51686748 42.0402224,7.29679579 40.84,8.432 L30.14,19.223 C29.720089,19.6508497 29.720089,20.3361503 30.14,20.764 C30.3373241,20.9657964 30.6077618,21.0793802 30.89,21.079 C31.172494,21.0791962 31.4431736,20.9656621 31.641,20.764 L33.735,18.651 L36.648,15.711 L38.933,13.405 C39.1328439,13.20276 39.4093283,13.0951499 39.6933082,13.1090817 C39.977288,13.1230135 40.2419115,13.2571699 40.421,13.478 C41.436808,14.6725179 42.8581426,15.4496045 44.412,15.66 C45.8717929,15.6433191 47.2530315,14.9960914 48.2,13.885 C48.5904241,13.5036132 49.2145392,13.5057221 49.6023769,13.8897388 C49.9902146,14.2737554 49.9985026,14.897819 49.621,15.292 C48.2849552,16.8210335 46.3421798,17.6824562 44.312,17.646 C42.562882,17.4864288 40.9198182,16.7375303 39.652,15.522 L38.768,16.414 L48.155,25.887 C48.2904284,26.0250291 48.4123188,26.1757177 48.519,26.337 L53.472,21.337 L53.528,21.279 C56.8617431,17.698879 56.7685436,12.1236924 53.317,8.657 Z" id="Shape"/><path d="M45.24,28.839 C45.6569593,29.2465307 46.3230407,29.2465307 46.74,28.839 C47.159911,28.4111503 47.159911,27.7258497 46.74,27.298 L37.368,17.84 L35.85,19.362 L45.237,28.835 L45.24,28.839 Z" id="Shape"/></g></g></svg>
